<svg width="160" height="64" version="1.1" viewBox="0 0 160 64" xmlns="http://www.w3.org/2000/svg">
<rect x="20.132" y="7.9797" width="48" height="48" ry="24" fill="#2d3e50" style="paint-order:stroke fill markers"/>
<g transform="matrix(2.1194 0 0 2.1379 39.699 -81.318)" fill="none" stroke="#47c8b9" stroke-linecap="round" stroke-linejoin="round">
<g transform="matrix(.39319 0 0 .38934 -2.6266 48.322)" stroke-width="2.4014">
<ellipse cx="12" cy="5" rx="9" ry="3"/>
<path d="m21 12c0 1.66-4 3-9 3s-9-1.34-9-3"/>
<path d="m3 5v14c0 1.66 4 3 9 3s9-1.34 9-3v-14"/>
</g>
<path d="m-5.4786 50.437a7.9991 7.9175 0 0 1 7.5702-5.3599 7.9991 7.9175 0 0 1 7.5702 5.36" stroke-dashoffset="3.2" stroke-width=".93956" style="paint-order:markers stroke fill"/>
<path d="m9.6618 55.552a7.9991 7.9175 0 0 1-7.5702 5.3597 7.9991 7.9175 0 0 1-7.57-5.3592" stroke-dashoffset="3.2" stroke-width=".93956" style="paint-order:markers stroke fill"/>
<path d="m7.5169 56.251 2.1449-0.69861 0.71838 2.0859" stroke-dashoffset="3.2" stroke-width=".93956" style="paint-order:stroke fill markers"/>
<path d="m-3.3336 49.738-2.1449 0.69861-0.71838-2.0859" stroke-dashoffset="3.2" stroke-width=".93956" style="paint-order:stroke fill markers"/>
</g>
<text x="77.641083" y="26.462444" fill="#2d3e50" font-family="Nunito" font-size="20.284px" font-weight="bold" style="font-variant-caps:normal;font-variant-east-asian:normal;font-variant-ligatures:normal;font-variant-numeric:normal;line-height:1.25" xml:space="preserve"><tspan x="77.641083" y="26.462444" style="font-variant-caps:normal;font-variant-east-asian:normal;font-variant-ligatures:normal;font-variant-numeric:normal">StoRe</tspan><tspan x="77.641083" y="51.817444" style="font-variant-caps:normal;font-variant-east-asian:normal;font-variant-ligatures:normal;font-variant-numeric:normal">Server</tspan></text>
</svg>
